<svg width="369" height="223" viewBox="0 0 369 223" fill="none" xmlns="http://www.w3.org/2000/svg">
<path d="M40.7789 126.631H1.35017C0.992083 126.631 0.648662 126.488 0.395456 126.234C0.14225 125.98 0 125.636 0 125.277C0 124.918 0.14225 124.573 0.395456 124.319C0.648662 124.066 0.992083 123.923 1.35017 123.923H40.7789C41.137 123.923 41.4804 124.066 41.7337 124.319C41.9869 124.573 42.1291 124.918 42.1291 125.277C42.1291 125.636 41.9869 125.98 41.7337 126.234C41.4804 126.488 41.137 126.631 40.7789 126.631Z" fill="#4F5B75"/>
<path d="M64.2133 126.631H48.4267C48.0686 126.631 47.7252 126.488 47.472 126.234C47.2188 125.98 47.0765 125.636 47.0765 125.277C47.0765 124.918 47.2188 124.573 47.472 124.319C47.7252 124.066 48.0686 123.923 48.4267 123.923H64.2133C64.5714 123.923 64.9148 124.066 65.168 124.319C65.4212 124.573 65.5635 124.918 65.5635 125.277C65.5635 125.636 65.4212 125.98 65.168 126.234C64.9148 126.488 64.5714 126.631 64.2133 126.631Z" fill="#4F5B75"/>
<path d="M72.371 126.631H64.2133C63.8552 126.631 63.5118 126.488 63.2586 126.234C63.0054 125.98 62.8632 125.636 62.8632 125.277C62.8632 124.918 63.0054 124.573 63.2586 124.319C63.5118 124.066 63.8552 123.923 64.2133 123.923H72.3899C72.748 123.923 73.0914 124.066 73.3446 124.319C73.5978 124.573 73.7401 124.918 73.7401 125.277C73.7401 125.636 73.5978 125.98 73.3446 126.234C73.0914 126.488 72.748 126.631 72.3899 126.631H72.371Z" fill="#4F5B75"/>
<path d="M107.211 126.631H100.205C99.8472 126.631 99.5038 126.488 99.2506 126.234C98.9974 125.98 98.8551 125.636 98.8551 125.277C98.8551 124.918 98.9974 124.573 99.2506 124.319C99.5038 124.066 99.8472 123.923 100.205 123.923H107.211C107.569 123.923 107.913 124.066 108.166 124.319C108.419 124.573 108.561 124.918 108.561 125.277C108.561 125.636 108.419 125.98 108.166 126.234C107.913 126.488 107.569 126.631 107.211 126.631Z" fill="#4F5B75"/>
<path d="M74.1838 46.4675C73.829 46.4654 73.4895 46.3224 73.2397 46.0698L65.7996 38.6083C65.5852 38.3506 65.4748 38.0218 65.4899 37.6865C65.505 37.3512 65.6446 37.0337 65.8812 36.7964C66.1178 36.5591 66.4344 36.4191 66.7687 36.404C67.103 36.3888 67.4309 36.4996 67.6879 36.7145L75.128 44.176C75.3205 44.363 75.4527 44.6035 75.5076 44.8666C75.5625 45.1296 75.5375 45.4031 75.4359 45.6518C75.3343 45.9005 75.1607 46.1129 74.9375 46.2617C74.7143 46.4104 74.4518 46.4887 74.1838 46.4864V46.4675Z" fill="#4F5B75"/>
<path d="M103.51 75.8589C103.155 75.8568 102.816 75.7138 102.566 75.4612L81.0196 53.8721C80.8052 53.6144 80.6948 53.2856 80.7099 52.9503C80.725 52.615 80.8646 52.2975 81.1012 52.0602C81.3378 51.8229 81.6544 51.6829 81.9887 51.6678C82.323 51.6526 82.6509 51.7634 82.9079 51.9784L104.435 73.5674C104.628 73.7544 104.76 73.9949 104.815 74.2579C104.87 74.521 104.845 74.7945 104.743 75.0432C104.641 75.2918 104.468 75.5043 104.245 75.653C104.021 75.8018 103.759 75.8801 103.491 75.8778L103.51 75.8589Z" fill="#4F5B75"/>
<path d="M113.31 85.7254C112.956 85.7234 112.616 85.5804 112.366 85.3277L106.229 79.173C106.015 78.9152 105.904 78.5864 105.919 78.2511C105.935 77.9159 106.074 77.5984 106.311 77.3611C106.547 77.1238 106.864 76.9838 107.198 76.9686C107.533 76.9535 107.86 77.0643 108.117 77.2792L114.255 83.434C114.447 83.6209 114.579 83.8615 114.634 84.1245C114.689 84.3876 114.664 84.6611 114.562 84.9097C114.461 85.1584 114.287 85.3708 114.064 85.5196C113.841 85.6684 113.578 85.7467 113.31 85.7444V85.7254Z" fill="#4F5B75"/>
<path d="M62.2117 89.2479C62.0372 89.2499 61.864 89.2177 61.7018 89.1532L29.8831 76.1998C29.7194 76.1326 29.5706 76.0338 29.445 75.9089C29.3194 75.7841 29.2195 75.6357 29.1512 75.4721C29.013 75.1418 29.0114 74.77 29.1466 74.4385C29.2819 74.1071 29.5429 73.843 29.8722 73.7045C30.2015 73.566 30.5723 73.5644 30.9028 73.7L62.7215 86.6534C63.027 86.7593 63.284 86.9724 63.4453 87.2533C63.6066 87.5343 63.6612 87.8642 63.5991 88.1823C63.5371 88.5005 63.3625 88.7854 63.1075 88.9847C62.8526 89.184 62.5344 89.2841 62.2117 89.2668V89.2479Z" fill="#4F5B75"/>
<path d="M88.9885 100.137C88.8141 100.139 88.6409 100.107 88.4787 100.042L70.2939 92.6377C69.9633 92.5021 69.7 92.2404 69.5619 91.9101C69.4238 91.5798 69.4222 91.208 69.5574 90.8765C69.6926 90.545 69.9536 90.281 70.283 90.1425C70.6123 90.0039 70.983 90.0023 71.3136 90.1379L89.4984 97.5426C89.8039 97.6485 90.0609 97.8616 90.2222 98.1425C90.3835 98.4235 90.4381 98.7534 90.376 99.0715C90.314 99.3896 90.1394 99.6746 89.8844 99.8739C89.6295 100.073 89.3113 100.173 88.9885 100.156V100.137Z" fill="#4F5B75"/>
<path d="M102.226 105.515C102.051 105.517 101.878 105.485 101.716 105.421L95.2579 102.788C94.9973 102.613 94.8065 102.351 94.7188 102.048C94.6311 101.746 94.652 101.422 94.7778 101.134C94.9037 100.845 95.1265 100.61 95.4075 100.47C95.6885 100.329 96.0098 100.292 96.3154 100.364L102.774 102.997C103.079 103.103 103.336 103.316 103.497 103.597C103.659 103.878 103.713 104.207 103.651 104.526C103.589 104.844 103.414 105.129 103.16 105.328C102.905 105.527 102.586 105.627 102.264 105.61L102.226 105.515Z" fill="#4F5B75"/>
<path d="M105.134 10.4479C104.864 10.4529 104.599 10.3761 104.373 10.2274C104.147 10.0787 103.971 9.86514 103.869 9.61461L100.621 1.88801C100.551 1.72387 100.515 1.54762 100.513 1.36933C100.512 1.19104 100.545 1.01419 100.612 0.848891C100.678 0.683589 100.777 0.533068 100.902 0.405921C101.026 0.278774 101.175 0.177493 101.338 0.107858C101.502 0.0382238 101.678 0.00160073 101.855 7.99124e-05C102.033 -0.0014409 102.21 0.0321703 102.374 0.0989946C102.539 0.165819 102.689 0.264547 102.816 0.389543C102.943 0.514539 103.044 0.663355 103.113 0.827493L106.38 8.57303C106.472 8.77953 106.511 9.00602 106.493 9.23152C106.474 9.45702 106.4 9.67424 106.275 9.86307C106.151 10.0519 105.981 10.2062 105.782 10.3118C105.582 10.4173 105.359 10.4706 105.134 10.4668V10.4479Z" fill="#4F5B75"/>
<path d="M113.31 29.8969C113.044 29.8982 112.782 29.8196 112.56 29.6711C112.338 29.5227 112.166 29.3112 112.064 29.0637L105.965 14.5384C105.824 14.2094 105.82 13.8381 105.953 13.506C106.086 13.1739 106.345 12.9084 106.673 12.7677C107.001 12.6271 107.371 12.6229 107.702 12.7561C108.033 12.8893 108.298 13.1489 108.438 13.4779L114.576 28.0221C114.668 28.2286 114.707 28.4551 114.688 28.6806C114.67 28.9061 114.595 29.1233 114.471 29.3121C114.347 29.501 114.177 29.6553 113.977 29.7608C113.778 29.8664 113.555 29.9197 113.329 29.9159L113.31 29.8969Z" fill="#4F5B75"/>
<path d="M123.621 54.2698C123.354 54.2711 123.093 54.1925 122.871 54.044C122.649 53.8956 122.476 53.6841 122.375 53.4366L115.784 37.8697C115.715 37.7068 115.678 37.5318 115.676 37.3547C115.674 37.1775 115.707 37.0017 115.773 36.8373C115.838 36.6729 115.936 36.5231 116.059 36.3964C116.183 36.2697 116.33 36.1687 116.492 36.0991C116.655 36.0294 116.829 35.9926 117.006 35.9906C117.183 35.9886 117.358 36.0215 117.522 36.0874C117.686 36.1534 117.835 36.2511 117.961 36.3749C118.088 36.4987 118.188 36.6463 118.258 36.8092L124.848 52.4518C124.94 52.6583 124.979 52.8848 124.961 53.1103C124.943 53.3358 124.868 53.553 124.744 53.7419C124.619 53.9307 124.449 54.085 124.25 54.1905C124.05 54.2961 123.828 54.3494 123.602 54.3456L123.621 54.2698Z" fill="#4F5B75"/>
<path d="M48.4267 104.152H48.1434L14.6063 97.0691C14.2558 96.9938 13.9494 96.7819 13.7546 96.48C13.5598 96.1781 13.4926 95.811 13.5677 95.4594C13.6429 95.1078 13.8542 94.8006 14.1552 94.6053C14.4562 94.4099 14.8223 94.3425 15.1728 94.4179L48.7099 101.538C49.0009 101.635 49.2499 101.829 49.4155 102.088C49.5812 102.346 49.6535 102.654 49.6204 102.96C49.5873 103.265 49.4507 103.55 49.2335 103.767C49.0163 103.984 48.7316 104.12 48.4267 104.152Z" fill="#4F5B75"/>
<path d="M94.5969 114H94.3136L59.8701 106.671C59.6965 106.633 59.532 106.562 59.3858 106.461C59.2397 106.36 59.1148 106.231 59.0184 106.081C58.9219 105.932 58.8558 105.765 58.8237 105.59C58.7917 105.415 58.7943 105.235 58.8315 105.061C58.9066 104.709 59.118 104.402 59.419 104.207C59.568 104.11 59.7346 104.044 59.9092 104.012C60.0838 103.979 60.263 103.982 60.4366 104.019L94.8801 111.329C95.2189 111.384 95.5239 111.567 95.7322 111.84C95.9406 112.114 96.0365 112.457 96.0002 112.799C95.9639 113.141 95.7982 113.456 95.5371 113.68C95.2761 113.903 94.9396 114.018 94.5969 114Z" fill="#4F5B75"/>
<path d="M109.383 117.143H109.099L100.64 115.344C100.289 115.269 99.9827 115.057 99.7879 114.755C99.5932 114.453 99.5259 114.086 99.6011 113.734C99.6762 113.383 99.8875 113.076 100.189 112.88C100.49 112.685 100.856 112.617 101.206 112.693L109.666 114.492C110.005 114.547 110.31 114.729 110.518 115.003C110.726 115.276 110.822 115.619 110.786 115.962C110.75 116.304 110.584 116.619 110.323 116.842C110.062 117.066 109.725 117.18 109.383 117.162V117.143Z" fill="#4F5B75"/>
<path d="M88.9885 26.2609C88.7642 26.263 88.5429 26.2087 88.3449 26.1028C88.147 25.9969 87.9787 25.8429 87.8555 25.6549L86.2315 23.1362C86.0362 22.8348 85.9682 22.468 86.0426 22.1164C86.117 21.7648 86.3276 21.4572 86.6281 21.2613C86.9286 21.0655 87.2943 20.9973 87.6449 21.0719C87.9955 21.1465 88.3022 21.3577 88.4975 21.659L90.1215 24.1778C90.255 24.3814 90.3308 24.6176 90.3408 24.8611C90.3508 25.1046 90.2946 25.3463 90.1782 25.5602C90.0619 25.7742 89.8897 25.9524 89.6801 26.0758C89.4706 26.1992 89.2315 26.2632 88.9885 26.2609Z" fill="#4F5B75"/>
<path d="M100.205 43.5511C99.981 43.5532 99.7597 43.4988 99.5618 43.3929C99.3638 43.2871 99.1955 43.1331 99.0723 42.9451L94.6347 36.0896C94.538 35.9404 94.4715 35.7735 94.4391 35.5985C94.4067 35.4236 94.409 35.2439 94.4458 35.0698C94.4826 34.8957 94.5533 34.7306 94.6537 34.5839C94.7542 34.4372 94.8825 34.3118 95.0313 34.2148C95.18 34.1178 95.3464 34.0511 95.5209 34.0186C95.6954 33.9861 95.8745 33.9884 96.0481 34.0253C96.2217 34.0622 96.3864 34.1331 96.5326 34.2338C96.6789 34.3346 96.804 34.4632 96.9007 34.6125L101.338 41.4679C101.472 41.6716 101.548 41.9078 101.558 42.1513C101.568 42.3948 101.511 42.6364 101.395 42.8504C101.279 43.0644 101.107 43.2426 100.897 43.366C100.687 43.4894 100.448 43.5534 100.205 43.5511Z" fill="#4F5B75"/>
<path d="M116.766 69.0413C116.542 69.0434 116.32 68.989 116.123 68.8832C115.925 68.7773 115.756 68.6233 115.633 68.4353L111.177 61.5609C110.981 61.2595 110.913 60.8927 110.988 60.5411C111.062 60.1895 111.273 59.8819 111.573 59.6861C111.874 59.4902 112.239 59.422 112.59 59.4966C112.941 59.5712 113.247 59.7824 113.443 60.0837L117.899 66.9581C118.033 67.1618 118.108 67.398 118.118 67.6415C118.128 67.885 118.072 68.1267 117.956 68.3406C117.839 68.5546 117.667 68.7328 117.458 68.8562C117.248 68.9796 117.009 69.0436 116.766 69.0413Z" fill="#4F5B75"/>
<path d="M62.4572 64.572C62.1884 64.5739 61.9252 64.4947 61.7018 64.3447L35.8881 46.9031C35.5926 46.7022 35.3888 46.3918 35.3215 46.0402C35.2542 45.6886 35.3289 45.3246 35.5293 45.0282C35.7296 44.7319 36.0391 44.5275 36.3897 44.46C36.7403 44.3925 37.1033 44.4675 37.3987 44.6684L63.1558 62.1101C63.4044 62.2675 63.5945 62.5025 63.6968 62.7788C63.7991 63.0552 63.8081 63.3576 63.7222 63.6396C63.6364 63.9215 63.4605 64.1674 63.2217 64.3393C62.9829 64.5112 62.6943 64.5996 62.4005 64.5909L62.4572 64.572Z" fill="#4F5B75"/>
<path d="M87.9122 81.8053C87.6433 81.8072 87.3802 81.728 87.1568 81.5781L69.5007 69.6283C69.3544 69.5289 69.2291 69.4014 69.1319 69.2534C69.0347 69.1053 68.9675 68.9395 68.9342 68.7654C68.9008 68.5913 68.902 68.4124 68.9377 68.2387C68.9733 68.0651 69.0428 67.9002 69.1419 67.7535C69.2411 67.6068 69.3682 67.4811 69.5158 67.3836C69.6634 67.2861 69.8288 67.2187 70.0024 67.1853C70.176 67.1519 70.3544 67.1531 70.5276 67.1888C70.7007 67.2246 70.8651 67.2942 71.0114 67.3937L88.7619 79.3434C89.0105 79.5008 89.2005 79.7358 89.3029 80.0122C89.4052 80.2885 89.4141 80.591 89.3283 80.8729C89.2424 81.1549 89.0666 81.4007 88.8278 81.5726C88.5889 81.7445 88.3004 81.8329 88.0066 81.8242L87.9122 81.8053Z" fill="#4F5B75"/>
<path d="M97.977 88.6229C97.7082 88.6248 97.4451 88.5456 97.2217 88.3957L91.5566 84.6081C91.2612 84.4072 91.0574 84.0968 90.9901 83.7452C90.9228 83.3936 90.9975 83.0296 91.1979 82.7333C91.3982 82.4369 91.7077 82.2325 92.0583 82.1651C92.4089 82.0976 92.7718 82.1725 93.0673 82.3735L98.7324 86.161C98.9809 86.3184 99.171 86.5534 99.2733 86.8298C99.3757 87.1061 99.3846 87.4086 99.2987 87.6905C99.2129 87.9725 99.037 88.2183 98.7982 88.3902C98.5594 88.5621 98.2709 88.6505 97.977 88.6419V88.6229Z" fill="#4F5B75"/>
<path d="M112.291 98.3191C112.022 98.321 111.759 98.2418 111.535 98.0918L105.757 94.1338C105.462 93.9329 105.258 93.6225 105.191 93.2709C105.123 92.9193 105.198 92.5553 105.398 92.259C105.599 91.9626 105.908 91.7582 106.259 91.6908C106.609 91.6233 106.972 91.6982 107.268 91.8991L113.103 95.8571C113.351 96.0146 113.541 96.2495 113.644 96.5259C113.746 96.8023 113.755 97.1047 113.669 97.3867C113.583 97.6686 113.407 97.9145 113.169 98.0864C112.93 98.2583 112.641 98.3467 112.347 98.338L112.291 98.3191Z" fill="#4F5B75"/>
<path d="M136.934 37.6993C136.62 37.7002 136.316 37.5907 136.075 37.3901C135.833 37.1894 135.669 36.9101 135.612 36.6009L129.361 4.25521C129.33 4.08112 129.334 3.90262 129.372 3.72989C129.41 3.55716 129.481 3.39358 129.582 3.2485C129.683 3.10343 129.811 2.97968 129.959 2.88434C130.108 2.789 130.274 2.72393 130.447 2.69284C130.621 2.66176 130.799 2.66526 130.971 2.70316C131.143 2.74106 131.306 2.81261 131.451 2.91373C131.596 3.01484 131.719 3.14355 131.814 3.29248C131.909 3.44142 131.974 3.60768 132.005 3.78177L138.256 36.1464C138.291 36.3205 138.292 36.5001 138.258 36.6746C138.224 36.8491 138.156 37.0152 138.058 37.1631C137.96 37.3111 137.833 37.438 137.685 37.5365C137.538 37.635 137.372 37.7032 137.198 37.7372L136.934 37.6993Z" fill="#4F5B75"/>
<path d="M139.445 50.6717C139.132 50.6726 138.828 50.5631 138.586 50.3624C138.345 50.1618 138.181 49.8825 138.123 49.5733L136.915 43.3238C136.847 42.9722 136.922 42.6081 137.122 42.3116C137.322 42.015 137.631 41.8103 137.982 41.7425C138.332 41.6747 138.695 41.7493 138.991 41.95C139.287 42.1507 139.491 42.4609 139.559 42.8125L140.767 49.062C140.803 49.2361 140.804 49.4157 140.77 49.5902C140.736 49.7647 140.668 49.9307 140.569 50.0787C140.471 50.2266 140.344 50.3535 140.197 50.4521C140.049 50.5506 139.884 50.6188 139.71 50.6527L139.445 50.6717Z" fill="#4F5B75"/>
<path d="M367.067 126.877H327.638C327.28 126.877 326.937 126.735 326.684 126.481C326.43 126.227 326.288 125.882 326.288 125.523C326.288 125.164 326.43 124.82 326.684 124.566C326.937 124.312 327.28 124.169 327.638 124.169H367.067C367.425 124.169 367.769 124.312 368.022 124.566C368.275 124.82 368.417 125.164 368.417 125.523C368.417 125.882 368.275 126.227 368.022 126.481C367.769 126.735 367.425 126.877 367.067 126.877Z" fill="#4F5B75"/>
<path d="M320.009 126.877H304.223C303.865 126.877 303.521 126.735 303.268 126.481C303.015 126.227 302.873 125.882 302.873 125.523C302.873 125.164 303.015 124.82 303.268 124.566C303.521 124.312 303.865 124.169 304.223 124.169H320.009C320.367 124.169 320.711 124.312 320.964 124.566C321.217 124.82 321.36 125.164 321.36 125.523C321.36 125.882 321.217 126.227 320.964 126.481C320.711 126.735 320.367 126.877 320.009 126.877Z" fill="#4F5B75"/>
<path d="M304.223 126.877H296.046C295.688 126.877 295.345 126.735 295.092 126.481C294.838 126.227 294.696 125.882 294.696 125.523C294.696 125.164 294.838 124.82 295.092 124.566C295.345 124.312 295.688 124.169 296.046 124.169H304.223C304.581 124.169 304.924 124.312 305.177 124.566C305.431 124.82 305.573 125.164 305.573 125.523C305.573 125.882 305.431 126.227 305.177 126.481C304.924 126.735 304.581 126.877 304.223 126.877Z" fill="#4F5B75"/>
<path d="M268.155 126.877H261.149C260.791 126.877 260.448 126.735 260.195 126.481C259.942 126.227 259.799 125.882 259.799 125.523C259.799 125.164 259.942 124.82 260.195 124.566C260.448 124.312 260.791 124.169 261.149 124.169H268.155C268.513 124.169 268.857 124.312 269.11 124.566C269.363 124.82 269.505 125.164 269.505 125.523C269.505 125.882 269.363 126.227 269.11 126.481C268.857 126.735 268.513 126.877 268.155 126.877Z" fill="#4F5B75"/>
<path d="M294.252 46.7515C293.984 46.7538 293.722 46.6755 293.499 46.5268C293.276 46.378 293.102 46.1656 293 45.9169C292.899 45.6682 292.874 45.3947 292.929 45.1317C292.983 44.8686 293.116 44.6281 293.308 44.4411L300.748 36.9797C300.868 36.8362 301.015 36.7192 301.182 36.6362C301.349 36.5532 301.531 36.506 301.717 36.4976C301.903 36.4892 302.089 36.5197 302.263 36.5873C302.437 36.6548 302.594 36.758 302.726 36.89C302.858 37.0221 302.96 37.1803 303.028 37.3544C303.095 37.5286 303.126 37.7149 303.117 37.9015C303.109 38.0881 303.062 38.2709 302.979 38.4382C302.896 38.6056 302.78 38.7538 302.637 38.8734L295.197 46.3349C295.074 46.4634 294.928 46.5664 294.766 46.6379C294.604 46.7094 294.429 46.7481 294.252 46.7515Z" fill="#4F5B75"/>
<path d="M264.926 76.1619C264.658 76.1642 264.396 76.0859 264.173 75.9371C263.949 75.7883 263.776 75.5759 263.674 75.3272C263.572 75.0786 263.548 74.8051 263.602 74.542C263.657 74.279 263.789 74.0384 263.982 73.8515L285.509 52.2624C285.628 52.119 285.776 52.002 285.943 51.919C286.11 51.836 286.292 51.7888 286.478 51.7804C286.664 51.7719 286.85 51.8025 287.024 51.87C287.197 51.9376 287.355 52.0407 287.487 52.1728C287.619 52.3049 287.721 52.4631 287.789 52.6372C287.856 52.8113 287.887 52.9977 287.878 53.1843C287.87 53.3709 287.823 53.5537 287.74 53.721C287.657 53.8884 287.541 54.0366 287.398 54.1562L265.889 75.7452C265.765 75.876 265.615 75.9803 265.45 76.0519C265.284 76.1235 265.106 76.1609 264.926 76.1619Z" fill="#4F5B75"/>
<path d="M306.224 89.5319C305.902 89.5492 305.584 89.4491 305.329 89.2498C305.074 89.0505 304.899 88.7656 304.837 88.4474C304.775 88.1293 304.83 87.7994 304.991 87.5184C305.152 87.2375 305.409 87.0244 305.715 86.9185L337.533 73.9651C337.697 73.8979 337.872 73.8638 338.049 73.8645C338.226 73.8653 338.401 73.901 338.564 73.9696C338.727 74.0382 338.875 74.1383 338.999 74.2643C339.124 74.3902 339.223 74.5395 339.289 74.7036C339.356 74.8678 339.39 75.0435 339.39 75.2209C339.389 75.3982 339.353 75.5737 339.285 75.7372C339.217 75.9008 339.117 76.0492 338.991 76.174C338.866 76.2989 338.717 76.3977 338.553 76.4649L306.734 89.4183C306.573 89.4893 306.4 89.5279 306.224 89.5319Z" fill="#4F5B75"/>
<path d="M279.485 100.364C279.163 100.382 278.844 100.281 278.589 100.082C278.334 99.8829 278.16 99.598 278.098 99.2798C278.036 98.9617 278.09 98.6318 278.252 98.3508C278.413 98.0699 278.67 97.8568 278.975 97.7509L297.16 90.3462C297.324 90.2791 297.499 90.2449 297.676 90.2457C297.853 90.2465 298.028 90.2822 298.191 90.3508C298.354 90.4194 298.502 90.5195 298.626 90.6454C298.751 90.7714 298.849 90.9207 298.916 91.0848C298.983 91.2489 299.017 91.4247 299.017 91.602C299.016 91.7794 298.98 91.9548 298.912 92.1184C298.844 92.2819 298.744 92.4304 298.618 92.5552C298.493 92.6801 298.344 92.7789 298.18 92.846L279.939 100.364C279.789 100.39 279.635 100.39 279.485 100.364Z" fill="#4F5B75"/>
<path d="M266.267 105.818C265.944 105.836 265.626 105.736 265.371 105.536C265.116 105.337 264.942 105.052 264.879 104.734C264.817 104.416 264.872 104.086 265.033 103.805C265.195 103.524 265.452 103.311 265.757 103.205L272.215 100.573C272.546 100.437 272.917 100.439 273.246 100.577C273.575 100.716 273.836 100.98 273.971 101.311C274.107 101.643 274.105 102.014 273.967 102.345C273.829 102.675 273.566 102.937 273.235 103.072L266.777 105.705C266.616 105.776 266.443 105.814 266.267 105.818Z" fill="#4F5B75"/>
<path d="M263.302 10.7319C263.077 10.7357 262.854 10.6824 262.654 10.5769C262.455 10.4713 262.285 10.317 262.161 10.1282C262.036 9.93936 261.962 9.72214 261.943 9.49664C261.925 9.27114 261.964 9.04465 262.056 8.83816L265.323 1.11155C265.392 0.948657 265.493 0.801073 265.619 0.677226C265.746 0.553378 265.895 0.455694 266.059 0.389749C266.223 0.323804 266.398 0.29089 266.575 0.292887C266.751 0.294883 266.926 0.331751 267.088 0.401386C267.251 0.47102 267.398 0.572057 267.521 0.698728C267.645 0.825399 267.742 0.975223 267.808 1.13965C267.874 1.30407 267.907 1.47987 267.905 1.65701C267.903 1.83416 267.866 2.00917 267.796 2.17207L264.53 9.91761C264.426 10.1586 264.255 10.3641 264.037 10.5088C263.819 10.6535 263.564 10.731 263.302 10.7319Z" fill="#4F5B75"/>
<path d="M255.088 30.181C254.862 30.1848 254.639 30.1315 254.44 30.0259C254.24 29.9204 254.07 29.7661 253.946 29.5773C253.822 29.3884 253.747 29.1712 253.729 28.9457C253.711 28.7202 253.749 28.4937 253.842 28.2872L259.979 13.743C260.048 13.5801 260.149 13.4325 260.275 13.3087C260.401 13.1848 260.551 13.0872 260.715 13.0212C260.879 12.9553 261.054 12.9224 261.231 12.9244C261.407 12.9264 261.582 12.9632 261.744 13.0329C261.907 13.1025 262.054 13.2035 262.177 13.3302C262.301 13.4569 262.398 13.6067 262.464 13.7711C262.53 13.9355 262.563 14.1113 262.561 14.2885C262.559 14.4656 262.522 14.6406 262.452 14.8035L256.315 29.3477C256.215 29.5923 256.045 29.8017 255.827 29.9499C255.608 30.0981 255.351 30.1785 255.088 30.181Z" fill="#4F5B75"/>
<path d="M244.815 54.5728C244.59 54.5767 244.367 54.5233 244.167 54.4178C243.968 54.3123 243.798 54.1579 243.674 53.9691C243.549 53.7803 243.475 53.5631 243.456 53.3376C243.438 53.1121 243.477 52.8856 243.569 52.6791L250.159 37.0365C250.229 36.8736 250.329 36.726 250.456 36.6022C250.582 36.4783 250.731 36.3806 250.895 36.3147C251.059 36.2487 251.235 36.2158 251.411 36.2178C251.588 36.2198 251.762 36.2567 251.925 36.3263C252.087 36.396 252.234 36.497 252.358 36.6237C252.481 36.7503 252.579 36.9002 252.645 37.0646C252.71 37.229 252.743 37.4048 252.741 37.582C252.739 37.7591 252.702 37.9341 252.633 38.097L246.043 53.7396C245.942 53.9841 245.773 54.1936 245.554 54.3418C245.336 54.49 245.079 54.5704 244.815 54.5728Z" fill="#4F5B75"/>
<path d="M320.009 104.493C319.667 104.511 319.33 104.396 319.069 104.173C318.808 103.95 318.642 103.634 318.606 103.292C318.57 102.95 318.666 102.607 318.874 102.334C319.082 102.06 319.387 101.877 319.726 101.823L353.263 94.683C353.437 94.6457 353.616 94.643 353.791 94.6752C353.965 94.7073 354.132 94.7737 354.281 94.8704C354.43 94.9671 354.559 95.0923 354.659 95.2389C354.76 95.3854 354.831 95.5505 354.868 95.7246C354.906 95.8986 354.908 96.0784 354.876 96.2535C354.844 96.4286 354.778 96.5957 354.682 96.7451C354.585 96.8946 354.46 97.0236 354.314 97.1247C354.168 97.2257 354.003 97.297 353.83 97.3343L320.293 104.455L320.009 104.493Z" fill="#4F5B75"/>
<path d="M273.82 114.303C273.478 114.321 273.141 114.206 272.88 113.983C272.619 113.759 272.453 113.444 272.417 113.102C272.381 112.76 272.477 112.417 272.685 112.143C272.893 111.87 273.198 111.687 273.537 111.632L307.981 104.322C308.154 104.285 308.333 104.282 308.508 104.314C308.683 104.347 308.849 104.413 308.998 104.51C309.147 104.606 309.276 104.732 309.377 104.878C309.477 105.025 309.548 105.19 309.586 105.364C309.623 105.538 309.625 105.718 309.593 105.893C309.561 106.068 309.495 106.235 309.399 106.384C309.302 106.534 309.177 106.663 309.031 106.764C308.885 106.865 308.721 106.936 308.547 106.974L274.104 114.284L273.82 114.303Z" fill="#4F5B75"/>
<path d="M259.053 117.408C258.723 117.414 258.402 117.298 258.152 117.082C257.902 116.865 257.741 116.564 257.699 116.235C257.657 115.907 257.737 115.574 257.924 115.302C258.111 115.029 258.392 114.835 258.713 114.757L267.173 112.958C267.524 112.883 267.89 112.95 268.191 113.145C268.492 113.341 268.703 113.648 268.778 113.999C268.853 114.351 268.786 114.718 268.591 115.02C268.397 115.322 268.09 115.534 267.74 115.609L259.28 117.408H259.053Z" fill="#4F5B75"/>
<path d="M279.485 26.5071C279.242 26.5094 279.003 26.4454 278.794 26.322C278.584 26.1986 278.412 26.0204 278.296 25.8064C278.179 25.5925 278.123 25.3508 278.133 25.1073C278.143 24.8638 278.219 24.6276 278.352 24.4239L279.976 21.9052C280.172 21.6039 280.478 21.3927 280.829 21.3181C281.179 21.2435 281.545 21.3116 281.846 21.5075C282.146 21.7034 282.357 22.011 282.431 22.3626C282.506 22.7142 282.438 23.081 282.242 23.3824L280.618 25.9011C280.495 26.0891 280.327 26.2431 280.129 26.349C279.931 26.4548 279.71 26.5092 279.485 26.5071Z" fill="#4F5B75"/>
<path d="M268.155 43.8351C267.912 43.8374 267.673 43.7735 267.464 43.65C267.254 43.5266 267.082 43.3484 266.965 43.1345C266.849 42.9205 266.793 42.6789 266.803 42.4353C266.813 42.1918 266.889 41.9556 267.022 41.752L271.46 34.8965C271.556 34.7473 271.682 34.6186 271.828 34.5179C271.974 34.4172 272.139 34.3463 272.312 34.3094C272.486 34.2724 272.665 34.2702 272.84 34.3027C273.014 34.3352 273.18 34.4018 273.329 34.4988C273.478 34.5958 273.606 34.7212 273.707 34.868C273.807 35.0147 273.878 35.1798 273.915 35.3539C273.952 35.528 273.954 35.7076 273.921 35.8826C273.889 36.0576 273.823 36.2244 273.726 36.3737L269.288 43.2291C269.165 43.4171 268.997 43.5711 268.799 43.677C268.601 43.7829 268.38 43.8372 268.155 43.8351Z" fill="#4F5B75"/>
<path d="M251.67 69.3443C251.427 69.3466 251.188 69.2826 250.978 69.1592C250.769 69.0358 250.597 68.8576 250.48 68.6436C250.364 68.4297 250.308 68.188 250.318 67.9445C250.328 67.701 250.403 67.4648 250.537 67.2612L254.937 60.3867C255.033 60.2375 255.159 60.1089 255.305 60.0081C255.451 59.9074 255.616 59.8365 255.789 59.7996C255.963 59.7627 256.142 59.7604 256.317 59.7929C256.491 59.8254 256.657 59.8921 256.806 59.9891C256.955 60.086 257.083 60.2115 257.184 60.3582C257.284 60.5049 257.355 60.67 257.392 60.8441C257.429 61.0182 257.431 61.1979 257.398 61.3728C257.366 61.5478 257.299 61.7147 257.203 61.8639L252.746 68.7383C252.628 68.9184 252.469 69.0675 252.282 69.1729C252.094 69.2784 251.885 69.3372 251.67 69.3443Z" fill="#4F5B75"/>
<path d="M305.922 64.8561C305.628 64.8647 305.34 64.7763 305.101 64.6044C304.862 64.4325 304.686 64.1867 304.601 63.9047C304.515 63.6228 304.524 63.3203 304.626 63.044C304.728 62.7676 304.918 62.5326 305.167 62.3752L330.924 44.9335C331.22 44.7326 331.582 44.6577 331.933 44.7252C332.284 44.7926 332.593 44.997 332.793 45.2934C332.994 45.5897 333.069 45.9537 333.001 46.3053C332.934 46.6569 332.73 46.9673 332.435 47.1682L306.678 64.6099C306.456 64.7666 306.193 64.8524 305.922 64.8561Z" fill="#4F5B75"/>
<path d="M280.505 82.1083C280.211 82.117 279.923 82.0286 279.684 81.8567C279.445 81.6848 279.269 81.439 279.183 81.157C279.097 80.8751 279.106 80.5726 279.209 80.2963C279.311 80.0199 279.501 79.7849 279.75 79.6275L297.406 67.6778C297.552 67.5783 297.717 67.5087 297.89 67.4729C298.063 67.4372 298.241 67.436 298.415 67.4694C298.588 67.5028 298.754 67.5702 298.901 67.6677C299.049 67.7652 299.176 67.8909 299.275 68.0376C299.374 68.1843 299.444 68.3492 299.48 68.5228C299.515 68.6965 299.516 68.8754 299.483 69.0495C299.45 69.2236 299.383 69.3894 299.285 69.5375C299.188 69.6855 299.063 69.8129 298.916 69.9124L281.26 81.8622C281.039 82.0188 280.776 82.1047 280.505 82.1083Z" fill="#4F5B75"/>
<path d="M270.44 89.0016C270.146 89.0103 269.858 88.9219 269.619 88.75C269.38 88.5781 269.204 88.3323 269.119 88.0503C269.033 87.7684 269.042 87.4659 269.144 87.1896C269.246 86.9132 269.436 86.6782 269.685 86.5208L275.35 82.7332C275.496 82.6338 275.661 82.5642 275.834 82.5284C276.007 82.4927 276.185 82.4915 276.359 82.5249C276.533 82.5583 276.698 82.6257 276.846 82.7231C276.993 82.8206 277.12 82.9463 277.219 83.0931C277.319 83.2398 277.388 83.4047 277.424 83.5783C277.459 83.7519 277.461 83.9309 277.427 84.105C277.394 84.2791 277.327 84.4449 277.229 84.593C277.132 84.741 277.007 84.8684 276.861 84.9679L271.196 88.7555C270.974 88.9121 270.711 88.998 270.44 89.0016Z" fill="#4F5B75"/>
<path d="M231.502 38.0023H231.238C231.064 37.9684 230.898 37.9002 230.751 37.8017C230.603 37.7031 230.476 37.5762 230.378 37.4283C230.28 37.2803 230.212 37.1143 230.178 36.9398C230.144 36.7652 230.145 36.5857 230.18 36.4115L236.431 4.02797C236.498 3.67639 236.703 3.36614 236.998 3.16548C237.145 3.06613 237.309 2.99666 237.482 2.96106C237.656 2.92546 237.834 2.92442 238.008 2.95799C238.181 2.99156 238.347 3.0591 238.494 3.15674C238.642 3.25437 238.769 3.3802 238.868 3.52704C238.967 3.67388 239.036 3.83885 239.072 4.01253C239.107 4.18621 239.108 4.36521 239.075 4.53929L232.824 36.9039C232.767 37.2131 232.603 37.4924 232.361 37.6931C232.12 37.8938 231.816 38.0032 231.502 38.0023Z" fill="#4F5B75"/>
<path d="M228.991 50.9746H228.726C228.552 50.9407 228.387 50.8725 228.239 50.774C228.092 50.6755 227.965 50.5485 227.867 50.4006C227.768 50.2527 227.7 50.0866 227.666 49.9121C227.632 49.7376 227.633 49.558 227.669 49.3839L228.878 43.1344C228.945 42.7828 229.149 42.4726 229.445 42.2719C229.591 42.1726 229.756 42.1031 229.929 42.0675C230.102 42.0319 230.281 42.0309 230.454 42.0644C230.628 42.098 230.793 42.1655 230.941 42.2632C231.088 42.3608 231.215 42.4866 231.314 42.6335C231.413 42.7803 231.483 42.9453 231.518 43.119C231.554 43.2927 231.555 43.4717 231.521 43.6457L230.313 49.8952C230.251 50.2009 230.086 50.4758 229.845 50.6727C229.604 50.8696 229.302 50.9764 228.991 50.9746Z" fill="#4F5B75"/>
<path d="M150.719 47.8499C150.382 47.8511 150.057 47.7252 149.808 47.4971C149.56 47.269 149.406 46.9555 149.378 46.619L145.771 4.10372C145.741 3.74712 145.854 3.39314 146.084 3.11968C146.314 2.84621 146.643 2.67565 146.999 2.64551C147.354 2.61538 147.707 2.72814 147.98 2.95899C148.252 3.18983 148.423 3.51986 148.453 3.87647L152.04 46.3728C152.056 46.5495 152.036 46.7275 151.983 46.8966C151.93 47.0657 151.843 47.2226 151.729 47.3581C151.615 47.4937 151.476 47.6052 151.318 47.6864C151.161 47.7675 150.989 47.8167 150.813 47.831L150.719 47.8499Z" fill="#4F5B75"/>
<path d="M218.114 47.8499H217.906C217.731 47.8245 217.563 47.7645 217.411 47.6735C217.259 47.5825 217.127 47.4622 217.021 47.3196C216.916 47.177 216.84 47.0149 216.797 46.8426C216.755 46.6704 216.746 46.4914 216.773 46.316L220.172 23.477C220.225 23.1229 220.416 22.8043 220.702 22.5912C220.989 22.3781 221.349 22.288 221.702 22.3408C222.055 22.3935 222.373 22.5847 222.585 22.8724C222.798 23.1601 222.887 23.5206 222.835 23.8747L219.436 46.7137C219.386 47.0298 219.226 47.318 218.984 47.5262C218.741 47.7345 218.433 47.8493 218.114 47.8499Z" fill="#4F5B75"/>
<path d="M222.835 15.6558H222.627C222.452 15.6303 222.284 15.5703 222.132 15.4793C221.98 15.3883 221.847 15.268 221.742 15.1254C221.637 14.9828 221.561 14.8207 221.518 14.6485C221.475 14.4762 221.467 14.2972 221.494 14.1218L222.986 4.10372C223.038 3.74963 223.229 3.43099 223.516 3.21789C223.658 3.11238 223.819 3.03596 223.991 2.99299C224.162 2.95002 224.341 2.94134 224.515 2.96745C224.69 2.99357 224.858 3.05396 225.01 3.14518C225.161 3.2364 225.293 3.35666 225.399 3.49911C225.504 3.64155 225.58 3.80338 225.623 3.97535C225.666 4.14733 225.674 4.32608 225.648 4.50141L224.157 14.5195C224.107 14.8357 223.947 15.1238 223.705 15.3321C223.462 15.5403 223.154 15.6551 222.835 15.6558Z" fill="#4F5B75"/>
<path d="M54.9415 200.981C54.9561 199.148 55.3334 197.337 56.0515 195.652C56.7695 193.966 57.814 192.441 59.1245 191.164C60.4349 189.887 61.9851 188.883 63.6853 188.211C65.3855 187.54 67.2017 187.213 69.0286 187.251C72.1161 187.233 75.1182 188.267 77.5435 190.183C79.9688 192.099 81.6737 194.785 82.3793 197.799L75.5434 198.841C75.2989 197.279 74.5025 195.857 73.2996 194.835C72.0966 193.813 70.5674 193.258 68.9909 193.273C65.1009 193.273 61.6452 196.189 61.6452 202.23V206.87C61.6452 212.892 65.082 215.809 68.9909 215.809C70.5536 215.827 72.0717 215.286 73.2726 214.283C74.4735 213.28 75.2786 211.881 75.5434 210.336L82.3604 211.453C81.6548 214.468 79.9499 217.153 77.5246 219.069C75.0993 220.985 72.0973 222.019 69.0097 222.002C67.1875 222.037 65.3764 221.709 63.6809 221.039C61.9854 220.369 60.4391 219.368 59.1311 218.095C57.8232 216.822 56.7796 215.302 56.0605 213.622C55.3415 211.943 54.9611 210.137 54.9415 208.31V200.981Z" fill="#4F5B75"/>
<path d="M89.3096 174.013H96.051V181.304H89.3096V174.013ZM89.3096 188.065H96.051V221.206H89.3096V188.065Z" fill="#4F5B75"/>
<path d="M120.43 221.206H113.31L101.074 188.065H108.212L116.879 212.987L125.585 188.065H132.666L120.43 221.206Z" fill="#4F5B75"/>
<path d="M137.746 174.013H144.487V181.304H137.746V174.013ZM137.746 188.065H144.487V221.206H137.746V188.065Z" fill="#4F5B75"/>
<path d="M152.097 200.981C152.114 199.15 152.493 197.34 153.213 195.657C153.932 193.974 154.977 192.451 156.287 191.176C157.597 189.901 159.146 188.899 160.845 188.228C162.544 187.558 164.359 187.232 166.184 187.27C169.273 187.249 172.276 188.281 174.702 190.198C177.128 192.115 178.832 194.802 179.535 197.818L172.718 198.935C172.474 197.377 171.68 195.957 170.481 194.936C169.282 193.914 167.758 193.358 166.184 193.368C162.275 193.368 158.839 196.284 158.839 202.325V206.965C158.839 212.987 162.275 215.904 166.184 215.904C167.758 215.914 169.282 215.357 170.481 214.335C171.68 213.314 172.474 211.895 172.718 210.336L179.535 211.453C178.832 214.469 177.128 217.156 174.702 219.073C172.276 220.99 169.273 222.023 166.184 222.001C164.36 222.039 162.547 221.714 160.85 221.045C159.152 220.375 157.603 219.375 156.293 218.102C154.984 216.829 153.938 215.308 153.218 213.627C152.498 211.946 152.117 210.139 152.097 208.309V200.981Z" fill="#4F5B75"/>
<path d="M194.509 221.206H186.729V213.631H194.509V221.206Z" fill="#4F5B75"/>
<path d="M202.384 200.981C202.399 199.148 202.776 197.337 203.494 195.652C204.212 193.966 205.256 192.441 206.567 191.164C207.877 189.887 209.428 188.883 211.128 188.211C212.828 187.54 214.644 187.213 216.471 187.251C219.559 187.23 222.563 188.262 224.989 190.179C227.415 192.096 229.119 194.783 229.822 197.799L223.005 198.916C222.761 197.358 221.967 195.938 220.768 194.917C219.569 193.895 218.044 193.339 216.471 193.349C212.562 193.349 209.125 196.265 209.125 202.306V206.946C209.125 212.968 212.562 215.885 216.471 215.885C218.044 215.895 219.569 215.338 220.768 214.317C221.967 213.295 222.761 211.876 223.005 210.317L229.822 211.434C229.119 214.45 227.415 217.137 224.989 219.054C222.563 220.971 219.559 222.004 216.471 221.983C214.644 222.02 212.828 221.694 211.128 221.022C209.428 220.35 207.877 219.347 206.567 218.07C205.256 216.792 204.212 215.267 203.494 213.582C202.776 211.897 202.399 210.085 202.384 208.253V200.981Z" fill="#4F5B75"/>
<path d="M234.769 211.586C234.769 206.548 238.546 201.7 248.913 201.7H255.333V200.829C255.333 195.924 252.897 193.254 248.988 193.254C247.597 193.239 246.232 193.639 245.068 194.405C243.905 195.171 242.995 196.266 242.455 197.553L235.77 195.659C236.971 193.101 238.885 190.947 241.282 189.458C243.678 187.969 246.453 187.209 249.272 187.27C257.278 187.27 262.094 192.44 262.094 199.863V221.206H255.352V217.778C254.249 219.182 252.826 220.3 251.203 221.038C249.58 221.776 247.804 222.113 246.024 222.02C239.018 222.02 234.694 217.835 234.694 212.552L234.769 211.586ZM255.333 211.718V207.135H246.873C243.89 207.135 241.529 208.934 241.529 211.586V211.908C241.529 214.104 243.248 215.885 247.194 215.885C248.796 215.964 250.39 215.62 251.818 214.89C253.246 214.159 254.458 213.065 255.333 211.718Z" fill="#4F5B75"/>
<path d="M266.89 188.065H271.573V187.8C271.573 177.858 274.085 174.013 284.527 174.013H286.246V180.111H283.923C279.297 180.111 278.258 182.005 278.258 186.739V188.065H286.189V194.163H278.258V221.206H271.516V194.163H266.833L266.89 188.065Z" fill="#4F5B75"/>
<path d="M296.764 207.154C296.764 213.063 299.993 215.904 304.317 215.904C305.707 216.029 307.096 215.669 308.252 214.886C309.408 214.103 310.259 212.944 310.662 211.605L317.536 212.722C316.686 215.529 314.922 217.97 312.525 219.652C310.129 221.335 307.238 222.162 304.317 222.001C302.471 222.081 300.627 221.784 298.898 221.13C297.169 220.475 295.59 219.477 294.256 218.194C292.922 216.911 291.861 215.37 291.136 213.665C290.412 211.96 290.04 210.125 290.041 208.272V200.981C290.175 197.326 291.716 193.865 294.342 191.327C296.967 188.789 300.472 187.37 304.119 187.37C307.766 187.37 311.271 188.789 313.896 191.327C316.521 193.865 318.063 197.326 318.197 200.981V207.135L296.764 207.154ZM296.764 201.719H311.436C311.172 196.038 307.867 193.368 304.109 193.368C300.352 193.368 296.972 196.076 296.764 201.719ZM304.827 183.823H299.729L305.394 173.142H312.475L304.827 183.823Z" fill="#4F5B75"/>
<path d="M217.887 113.621C217.699 113.431 217.302 113.431 217.302 113.621L188.977 152.822C188.92 152.965 188.923 153.125 188.983 153.267C189.043 153.408 189.156 153.521 189.298 153.579C191.631 153.869 193.998 153.67 196.251 152.996C198.503 152.321 200.592 151.185 202.384 149.659C203.54 148.721 204.529 147.594 205.311 146.326L220.172 125.892C223.364 121.518 221.607 117.408 217.887 113.621ZM190.336 143.921L144.6 129.169C144.204 128.979 144.015 129.566 144.015 129.756C144.466 132.088 145.393 134.302 146.738 136.257C148.084 138.213 149.818 139.868 151.833 141.118C153.096 141.921 154.48 142.516 155.931 142.88L179.78 150.72C184.86 152.292 188.372 149.356 190.733 144.641C190.733 144.451 190.733 144.262 190.336 144.054V143.921ZM152.815 128.184C153.004 128.184 153.4 127.995 153.4 127.786V79.3813C153.398 79.2913 153.372 79.2035 153.327 79.1261C153.281 79.0487 153.216 78.9842 153.139 78.9387C153.061 78.8932 152.974 78.8683 152.884 78.8662C152.794 78.8641 152.705 78.885 152.626 78.9268C150.568 80.0552 148.761 81.5929 147.317 83.4457C145.872 85.2985 144.819 87.4275 144.223 89.7024C143.851 91.1763 143.654 92.6892 143.637 94.2096V119.491C143.619 124.983 147.735 127.407 152.815 128.184ZM157.12 87.4109L203.045 72.5069C203.117 72.4776 203.181 72.4315 203.232 72.3725C203.283 72.3134 203.319 72.243 203.338 72.1672C203.356 72.0913 203.356 72.0122 203.338 71.9362C203.32 71.8603 203.284 71.7898 203.234 71.7305C201.509 70.1258 199.475 68.8928 197.257 68.1078C195.038 67.3228 192.683 67.0024 190.336 67.1665C188.851 67.2141 187.39 67.5485 186.031 68.1512L162.2 75.9914C157.12 77.7527 156.138 82.2598 156.931 87.3541C156.743 87.2215 156.913 87.4109 157.101 87.4109H157.12ZM226.309 103.868C225.733 102.488 225.012 101.174 224.157 99.9477L209.295 79.5328C206.161 75.215 201.478 75.6127 196.794 77.961C196.606 78.1503 196.398 78.3587 196.606 78.548L225.139 117.749C225.184 117.827 225.253 117.888 225.335 117.923C225.418 117.959 225.509 117.966 225.596 117.945C225.683 117.923 225.761 117.874 225.818 117.805C225.875 117.736 225.909 117.65 225.913 117.56C226.978 115.45 227.564 113.13 227.63 110.766C227.695 108.402 227.238 106.053 226.291 103.887L226.309 103.868Z" fill="#4F5B75"/>
</svg>
