<svg width="31" height="27" viewBox="0 0 31 27" fill="none" xmlns="http://www.w3.org/2000/svg">
<path d="M26.9435 4.11994C26.2711 3.44728 25.4728 2.91367 24.5942 2.54961C23.7156 2.18555 22.7738 1.99817 21.8228 1.99817C20.8717 1.99817 19.93 2.18555 19.0513 2.54961C18.1727 2.91367 17.3744 3.44728 16.7021 4.11994L15.3067 5.51531L13.9113 4.11994C12.5532 2.76184 10.7113 1.99887 8.79061 1.99887C6.86997 1.99887 5.028 2.76184 3.6699 4.11994C2.3118 5.47804 1.54883 7.32002 1.54883 9.24066C1.54883 11.1613 2.3118 13.0033 3.6699 14.3614L5.06526 15.7567L15.3067 25.9982L25.5481 15.7567L26.9435 14.3614C27.6162 13.689 28.1498 12.8907 28.5138 12.0121C28.8779 11.1335 29.0653 10.1917 29.0653 9.24066C29.0653 8.28959 28.8779 7.34784 28.5138 6.46921C28.1498 5.59058 27.6162 4.79229 26.9435 4.11994Z" stroke="#8692AF" stroke-width="2" stroke-linecap="round" stroke-linejoin="round"/>
</svg>
